<?xml version="1.0" encoding="utf-8"?>
<!-- Generator: Adobe Illustrator 16.0.0, SVG Export Plug-In . SVG Version: 6.00 Build 0)  -->
<!DOCTYPE svg PUBLIC "-//W3C//DTD SVG 1.1//EN" "http://www.w3.org/Graphics/SVG/1.1/DTD/svg11.dtd">
<svg version="1.1" id="Layer_1" xmlns="http://www.w3.org/2000/svg" xmlns:xlink="http://www.w3.org/1999/xlink" x="0px" y="0px"
	 width="150px" height="150px" viewBox="0 0 150 150" enable-background="new 0 0 150 150" xml:space="preserve">
<path fill="#9E9E9E" d="M22.5,67.5c8.273,0,15-6.727,15-15s-6.727-15-15-15s-15,6.727-15,15S14.227,67.5,22.5,67.5z M127.5,67.5
	c8.273,0,15-6.727,15-15s-6.727-15-15-15s-15,6.727-15,15S119.227,67.5,127.5,67.5z M135,75h-15c-4.125,0-7.852,1.664-10.57,4.359
	c9.445,5.18,16.148,14.531,17.602,25.641H142.5c4.148,0,7.5-3.352,7.5-7.5V90C150,81.727,143.273,75,135,75z M75,75
	c14.508,0,26.25-11.742,26.25-26.25S89.508,22.5,75,22.5S48.75,34.242,48.75,48.75S60.492,75,75,75z M93,82.5h-1.945
	C86.18,84.844,80.766,86.25,75,86.25s-11.156-1.406-16.055-3.75H57c-14.906,0-27,12.094-27,27v6.75c0,6.211,5.039,11.25,11.25,11.25
	h67.5c6.211,0,11.25-5.039,11.25-11.25v-6.75C120,94.594,107.906,82.5,93,82.5z M40.57,79.359C37.852,76.664,34.125,75,30,75H15
	C6.727,75,0,81.727,0,90v7.5c0,4.148,3.352,7.5,7.5,7.5h15.445C24.422,93.891,31.125,84.539,40.57,79.359z"/>
</svg>
